<svg xmlns="http://www.w3.org/2000/svg" viewBox="0 0 640 480" role="img" aria-labelledby="title">
  <title id="title">Festival henna pattern preview</title>
  <rect width="640" height="480" fill="#fffdf9"/>
  <g fill="none" stroke-linecap="round" stroke-linejoin="round">
    <path d="M103 353c78-74 161-111 250-110 67 1 128 24 184 70" stroke="#4f1624" stroke-width="10"/>
    <circle cx="252" cy="213" r="46" stroke="#7d2638" stroke-width="8"/>
    <circle cx="413" cy="226" r="42" stroke="#1f6f61" stroke-width="7"/>
    <path d="M252 167c12 17 28 31 46 42M298 213c-17 14-32 28-46 46M252 259c-13-17-28-31-46-42M206 213c16-14 31-28 46-46" stroke="#d79a33" stroke-width="5"/>
    <path d="M413 184c13 15 27 28 42 39M455 226c-16 12-30 25-42 42M413 268c-13-15-27-28-42-39M371 226c15-12 29-25 42-42" stroke="#7d2638" stroke-width="5"/>
    <path d="M151 177c31 16 31 16 0 32-31-16-31-16 0-32zM506 158c31 16 31 16 0 32-31-16-31-16 0-32zM333 83c20 30 20 30 0 60-20-30-20-30 0-60z" stroke="#1f6f61" stroke-width="6"/>
  </g>
</svg>
